<svg id="Livello_1" data-name="Livello 1" xmlns="http://www.w3.org/2000/svg" viewBox="0 0 178.57 178.65"><defs><style>.cls-1{fill:#fff;}</style></defs><path class="cls-1" d="M42.65,13.46C55.25,3.82,69.33-.3,84.82,3.34c8.54,2,16.83,5.2,25,8.4,2.78,1.08,4.9,3.83,7.34,5.8,4,3.26,9.06,5.81,11.94,9.88a383.86,383.86,0,0,1,20.75,32.71,126.24,126.24,0,0,1,10,22.86c4.25,13,6.29,26.36,4.15,40-.93,6-1.79,12.15-3.85,17.8-4.27,11.74-14.7,16.74-25.64,19.24-10.3,2.34-20.93,1.78-31.64-.47a38.63,38.63,0,0,1-22.43-13.22C67,130.24,60.91,112,67.59,91a5,5,0,0,0-.32-3.84c-.87,1.38-2.1,2.64-2.56,4.14-4.73,15.34-3,30.25,3.19,44.83,8.72,20.53,26.63,27.29,46.54,30.81,5,.89,10.24.74,15.15,1.06-6.82,5.77-15.23,6.94-24.35,4.81a64.26,64.26,0,0,1-31.36-17.23c-4.15-4.14-8.23-9.05-10.37-14.41-5.64-14.07-8.11-28.81-5.37-44.07C60.24,85.41,67.79,78,77.62,72.76c2.45-1.3,6.14-.57,9.2-.23.87.1,1.53,2.1,2.29,3.23a14.87,14.87,0,0,1-3.45,1.08c-1.45.08-3-.73-4.37-.41a10.12,10.12,0,0,0-8,7c-4.4,11.66-3.05,23.29-1.76,35.06a2.69,2.69,0,0,0,.22,1c4.79,8.27,7.93,18.47,14.78,24.37,12.24,10.53,27.57,16.12,44.16,11.28,8.28-2.41,16.29-6.58,22.32-13.2a17.55,17.55,0,0,0,4.29-8.28A259.18,259.18,0,0,0,160.82,106c.26-4-1.29-8.11-2.4-12.06-3.74-13.26-7.88-26.35-15.24-38.21-8.31-13.39-17-26.37-30.28-35.56-2.81-1.95-5-4.95-8-6.38C86,4.82,66.63,4.21,47.07,11.94,45.65,12.51,44.1,13,42.65,13.46Z" transform="translate(0 0)"/><path class="cls-1" d="M2.06,73.83c-.11-6.35.73-12.2,6.35-16.77C18.57,48.78,28,39.56,38.14,31.3c8-6.5,17.73-9.6,27.82-11.59a55.17,55.17,0,0,1,30.25,2.65c3.07,1.12,6.51,1.23,9.78,1.82A24.6,24.6,0,0,1,122.65,35c4.4,6.33,10.2,11.68,14.65,18a99.43,99.43,0,0,1,17.53,45.55c1.16,9,.61,17.43-.58,26.1-1.47,10.77-8.72,17.31-17.28,22.62-9.92,6.17-20.62,5.22-31.35,2.54-1-.25-1.92-1.09-3.84-2.24,6.51-.46,12-.78,17.39-1.22,15.24-1.24,29.81-13.39,31.33-29,1.79-18.44-2.82-35.54-10.7-52A55.64,55.64,0,0,0,135.65,59c-.41.45-.74.74-.71.79,7.33,11.46,8.34,24.81,11.15,37.6,1.89,8.6.21,17-2.51,25.07-3.73,11-13.07,16.23-23.44,18.78-6.83,1.67-14.21,1.44-21.34,1.39s-13.75-5.26-15.06-11.41c1.06.29,2.16.27,2.78.8,7.91,6.83,17.9,6.34,26.5,4.56s18.86-4,23.48-13.89c4.12-8.85,4.21-18,3.71-27.7-.85-16.83-8.93-31.28-13.51-46.82-2.53-8.59-10.43-14.54-18.92-18.11a115.42,115.42,0,0,0-19.06-5.8,46.68,46.68,0,0,0-11.8-.69c-11.62.39-22.72,3-32.76,9-2.67,1.6-4.75,4.13-7.27,6-4.4,3.26-8.93,6.34-13.39,9.49a15.34,15.34,0,0,0-3.2,2.35Q11.9,60.54,3.69,70.81A19.55,19.55,0,0,0,2.06,73.83Z" transform="translate(0 0)"/><path class="cls-1" d="M22,148.49c-2.71-3.69-5.57-7.28-8.06-11.12a7.52,7.52,0,0,1-1-4.75C16.66,106.25,24.69,81.51,42,60.7,52.14,48.56,65.91,43.24,81.31,43.2c4.91,0,10.35,2.68,14.67,5.49,15,9.76,20.88,24.9,22,42,.69,10.74-3.06,16.53-10.54,19.28-4.16,1.54-14.93-1.67-17.23-5.34-.62-1-.44-2.5-.63-3.74,5.07,1.41,9.37,2.88,13.79,3.74,3.44.66,8.13-3.29,8.6-6.41a42,42,0,0,0-3.41-24.76c-1.1-2.33-2.59-4.93-4.64-6.26a149,149,0,0,0-15.73-8.63c-8.89-4.35-17.22-1.78-25,3C33.39,79.83,30.83,108.44,34.65,139c1.12,8.85,4.66,17.38,7,25.6-8.34-1.86-11.6-9.1-12.58-17.46a191.52,191.52,0,0,1-1.42-26.22C28.18,96.69,36,75.45,55.46,60c12.15-9.7,28.83-12.39,40.2-3.5.6.47,1.32.79,2.36,1.42-2.94-5.71-10.46-10.47-17.34-10.29C68.15,47.92,56.82,51.87,48,61.17c-11.3,11.94-18,26.51-23.35,41.86C19.48,117.91,19.75,132.83,22,148.49Z" transform="translate(0 0)"/><path class="cls-1" d="M100.8,177c-9.46,4-16.37-.17-23.51-4.63a57.78,57.78,0,0,1-17.4-17.58c-4.77-7.26-10.14-14.59-11-24.11-1.48-16.26-3-32.46,6.09-47.12,3.44-5.54,8.33-10.17,13.55-16.4-4,3-7.48,4.83-9.87,7.54-8.24,9.33-15,19.39-14.26,32.79.22,3.89-.95,7.84-1.19,11.79-.21,3.59-.85,7.46.17,10.75a141.47,141.47,0,0,0,8.08,20.21A60.61,60.61,0,0,0,60,162.83c4.16,4.84,9,9.11,13.41,13.54-10,.53-17.59-3.8-22.18-12.45-2.29-4.31-4.85-8.5-7.49-12.61-3.69-5.72-4.58-12.13-4.6-18.65,0-11.26-1.41-22.88.83-33.72,3.69-17.85,14.32-31.53,32.43-37.25,4.47-1.41,10.16-.22,15,1,4.08,1,7.68,3.91,11.51,5.94,6.61,3.51,11.46,16.73,10.17,23.51-.81,4.3-5,8-9.07,7.91-4.39-.06-9.48-4.32-10-8.45a2.09,2.09,0,0,1,.27-1.38A11.84,11.84,0,0,1,92,88.7c.94,1.07,1.6,2.38,2.64,2.89,2.08,1,4.83,2.68,6.46,2s3-3.77,3.18-5.93c.94-9.5-6.32-13.36-13-17C81,65.24,74,66.71,66.09,75.39c-7.57,8.39-12.61,18.23-13,29.63-.32,9,.54,18.11,1.18,27.14.13,1.86,1.42,3.74,2.49,5.41,4.51,7.09,8.66,14.47,13.83,21.06A40.88,40.88,0,0,0,95,174.06C96.85,174.53,98.65,175.92,100.8,177Z" transform="translate(0 0)"/><path class="cls-1" d="M1.38,104.55C-.48,95.69-1.18,88.85,4,81.32c10.7-15.5,22.35-30,37.47-41.2S73.37,23.89,92.21,29.33c2.06.6,4.25.72,6.36,1.14,13,2.64,21.18,11.21,25.93,22.77,4.22,10.27,8,20.93,10.08,31.79,1.91,9.92,2.86,20.43-.78,30.42-1,2.69-2.4,5.72-4.55,7.39-8.28,6.45-17.82,9.53-28.41,8.37-3.74-.41-7.8-.61-11.06-2.23-14.92-7.44-21.62-28-14.38-43.34.72-1.54,2.35-2.65,3.55-4l1.51.84c-.54,3-1.52,6-1.53,9,0,6.4-.13,12.9.87,19.19,1.53,9.52,11.48,14.94,20.26,15.58a42.86,42.86,0,0,0,11.41-.94c13.41-2.66,18.08-8.41,19.34-22.06,1.35-14.5-2.16-28.12-7.31-41.34-3.44-8.86-8.29-17.61-16.17-22.91-5.68-3.82-13.27-5-20.14-6.81-13.26-3.57-25.52.84-36.84,6.75-6.2,3.24-10.86,9.43-16.19,14.32-.85.78-1.43,1.91-2.36,2.55-11.46,8-17.39,20.26-24.31,31.66C4.65,92.23,3.65,98,1.38,104.55Z" transform="translate(0 0)"/><path class="cls-1" d="M8.11,125.19a25.81,25.81,0,0,1,2.49-30,34.92,34.92,0,0,0,5.62-10.48A53.34,53.34,0,0,1,28.88,64.59C34,59.4,38.57,53.59,44,48.82c6.37-5.61,13.93-9,22.19-11.74a42.28,42.28,0,0,1,22.33-1.34c11.87,2.24,21,8.56,27,18.63,7.11,12.09,12.43,25.15,11.79,39.56-.27,6-2.06,12-3.78,17.85-2.18,7.32-16.25,10.25-23.87,8.54a2.64,2.64,0,0,1-.48-.14c-20.47-3.89-19.89-17.25-16-34.62,1-4.33,5.23-6.33,9.51-5.51,2.57.49,5,2.64,7,4.49.6.53-.18,2.6-.33,4C98.2,88,96.74,87.65,96,86.75c-2.84-3.64-5.82-3.59-8.13.35C84.53,92.87,85.28,106,89.23,110c5.41,5.53,16.49,6.49,23.9,3.2,8-3.54,8.06-10.59,8.53-17.15,1-14.38-3-27.72-10.74-39.79-2-3.2-5.4-5.8-8.63-8-8.93-6-17.57-11.69-29.74-8.93-24.45,5.55-38.78,21.88-49.2,43-.58,1.19-1,2.48-1.59,3.66-3.21,6.2-7.17,12.12-9.5,18.63C10.1,111,9.55,117.83,8.11,125.19Z" transform="translate(0 0)"/><path class="cls-1" d="M177.36,96.83q-1.31-6.28-2.59-12.58a8.65,8.65,0,0,0-.47-2.42c-3.77-6.76-7.47-13.56-11.46-20.18q-5.67-9.42-11.93-18.47c-1.25-1.8-3.74-2.69-5.25-4.37C142,34.74,138.58,30.45,135,26.27a25.59,25.59,0,0,0-3.64-4c-5.44-4.18-10.79-8.53-16.57-12.19-4.56-2.88-9.7-4.88-14.62-7.19A32.45,32.45,0,0,1,94.54,0c9.37,0,18.43,2.08,26,7.41,6.24,4.42,11.24,10.59,16.82,15.94,1.87,1.78,3.9,3.38,5.77,5.16A114.44,114.44,0,0,1,164,54.83c4.26,7.45,8.86,14.7,13.28,22a6.06,6.06,0,0,1,1.23,2.58c.11,5.75.06,11.49.06,17.24Z" transform="translate(0 0)"/><path class="cls-1" d="M107.33,22.21c-3.43-1.08-7-1.81-10.27-3.29-15.17-7-30.65-4.84-45.19.49-9.31,3.42-17.22,10.71-25.65,16.42-5,3.37-9.86,7-14.84,10.54C18.05,27.6,46.19,12.06,73.12,10.42c12.26-.74,24.59,2.12,34.81,9.78Z" transform="translate(0 0)"/><path class="cls-1" d="M148.54,45.29c2.65,4.49,5.33,9,7.93,13.49,1.95,3.39,3.91,6.78,5.68,10.26,2.54,5,5.43,10,7.23,15.23a216.17,216.17,0,0,1,6.15,22.91,17.2,17.2,0,0,1-.53,8.63c-1.79,5.49-4.25,10.77-6.61,16.54.55-8.18,1.36-15.71,1.44-23.24a32.3,32.3,0,0,0-1.93-12.28c-6.12-15.1-12.73-30-19.14-45-.8-1.86-1.45-3.79-2.17-5.68Z" transform="translate(0 0)"/><path class="cls-1" d="M131.58,10.6c22.46,11.65,36.9,29.76,43.58,54.08-4.55-7.68-8.83-15.53-13.77-22.94-2.3-3.44-5.91-6-8.89-9q-3.09-3.11-6.08-6.29Q139,18.56,131.58,10.6Z" transform="translate(0 0)"/></svg>