<svg id="Livello_1" data-name="Livello 1" xmlns="http://www.w3.org/2000/svg" viewBox="0 0 178.57 178.65"><defs><style>.cls-1{fill:#252525;}</style></defs><path class="cls-1" d="M251,275.63c12.6-9.64,26.68-13.76,42.17-10.12,8.54,2,16.83,5.2,25,8.4,2.78,1.08,4.9,3.83,7.34,5.8,4,3.26,9.06,5.81,11.94,9.88A384.07,384.07,0,0,1,358.2,322.3a126.8,126.8,0,0,1,10,22.86c4.25,12.95,6.29,26.36,4.15,40-.93,6-1.79,12.15-3.85,17.8-4.27,11.74-14.7,16.74-25.64,19.24-10.3,2.34-20.93,1.78-31.64-.47a38.66,38.66,0,0,1-22.43-13.22c-13.42-16.1-19.53-34.36-12.85-55.37a5,5,0,0,0-.32-3.84c-.87,1.38-2.1,2.64-2.56,4.14-4.73,15.34-3,30.25,3.19,44.83,8.72,20.53,26.63,27.29,46.54,30.81,5,.89,10.24.74,15.15,1.06-6.82,5.77-15.23,6.94-24.35,4.81a64.29,64.29,0,0,1-31.36-17.23c-4.15-4.14-8.23-9.05-10.37-14.41-5.64-14.07-8.11-28.81-5.37-44.07,2.1-11.66,9.65-19.07,19.48-24.31,2.45-1.3,6.14-.57,9.2-.23.87.1,1.53,2.1,2.29,3.23a14.63,14.63,0,0,1-3.45,1.08c-1.45.08-3-.73-4.37-.41-3.79.9-6.34,2.63-8,7-4.4,11.66-3.05,23.29-1.76,35.06a2.6,2.6,0,0,0,.22,1c4.79,8.27,7.93,18.47,14.78,24.37,12.24,10.53,27.57,16.12,44.16,11.28,8.28-2.41,16.29-6.58,22.32-13.2a17.56,17.56,0,0,0,4.29-8.28,259.84,259.84,0,0,0,3.52-27.63c.26-4-1.29-8.11-2.4-12.06-3.74-13.26-7.88-26.35-15.24-38.21-8.31-13.39-17-26.37-30.28-35.56-2.81-1.95-5-4.95-8-6.38-18.94-9-38.27-9.61-57.83-1.88C254,274.68,252.45,275.12,251,275.63Z" transform="translate(-208.35 -262.17)"/><path class="cls-1" d="M210.41,336c-.11-6.35.73-12.2,6.35-16.77,10.16-8.28,19.56-17.5,29.73-25.76,8-6.5,17.73-9.6,27.82-11.59a55.16,55.16,0,0,1,30.25,2.65c3.07,1.12,6.51,1.23,9.78,1.82A24.6,24.6,0,0,1,331,297.16c4.4,6.33,10.2,11.68,14.65,18a99.45,99.45,0,0,1,17.53,45.55c1.16,9,.61,17.43-.58,26.1-1.47,10.77-8.72,17.31-17.28,22.62-9.92,6.17-20.62,5.22-31.35,2.54-1-.25-1.92-1.09-3.84-2.24,6.51-.46,11.95-.78,17.39-1.22,15.24-1.24,29.81-13.39,31.33-29.05,1.79-18.44-2.82-35.54-10.7-52A56.93,56.93,0,0,0,344,321.2c-.41.45-.74.74-.71.79,7.33,11.46,8.34,24.81,11.15,37.6,1.89,8.6.21,17-2.51,25.07-3.73,11-13.07,16.23-23.44,18.78-6.83,1.67-14.21,1.44-21.34,1.39s-13.75-5.26-15.06-11.41c1.06.29,2.16.27,2.78.8,7.91,6.83,17.9,6.34,26.5,4.56s18.86-3.95,23.48-13.89c4.12-8.85,4.21-18,3.71-27.7-.85-16.83-8.93-31.28-13.51-46.82-2.53-8.59-10.43-14.54-18.92-18.11a116.18,116.18,0,0,0-19.06-5.8,46.46,46.46,0,0,0-11.8-.69c-11.62.39-22.72,3-32.76,9-2.67,1.6-4.75,4.13-7.27,6-4.4,3.26-8.93,6.34-13.39,9.49a15.64,15.64,0,0,0-3.2,2.35q-8.4,10.1-16.61,20.37A19.29,19.29,0,0,0,210.41,336Z" transform="translate(-208.35 -262.17)"/><path class="cls-1" d="M230.32,410.66c-2.71-3.69-5.57-7.28-8.06-11.12a7.51,7.51,0,0,1-1-4.75c3.75-26.37,11.78-51.11,29.11-71.92,10.12-12.14,23.89-17.46,39.29-17.5,4.91,0,10.35,2.68,14.67,5.49,15,9.76,20.88,24.9,22,42,.69,10.74-3.06,16.53-10.54,19.28-4.16,1.54-14.93-1.67-17.23-5.34-.62-1-.44-2.5-.63-3.74,5.07,1.41,9.37,2.88,13.79,3.74,3.44.66,8.13-3.29,8.6-6.41a42,42,0,0,0-3.41-24.76c-1.1-2.33-2.59-4.93-4.64-6.26a148,148,0,0,0-15.73-8.63c-8.89-4.35-17.22-1.78-25,3C241.74,342,239.18,370.61,243,401.15c1.12,8.85,4.66,17.38,7,25.6-8.34-1.86-11.6-9.1-12.58-17.46A191.57,191.57,0,0,1,236,383.07c.53-24.21,8.39-45.45,27.81-60.94,12.15-9.7,28.83-12.39,40.2-3.5.6.47,1.32.79,2.36,1.42-2.94-5.71-10.46-10.47-17.34-10.29-12.53.33-23.86,4.28-32.66,13.58-11.3,11.94-17.95,26.51-23.35,41.86C227.83,380.08,228.1,395,230.32,410.66Z" transform="translate(-208.35 -262.17)"/><path class="cls-1" d="M309.15,439.21c-9.46,4-16.37-.17-23.51-4.63A57.78,57.78,0,0,1,268.24,417c-4.77-7.26-10.14-14.59-11-24.11-1.48-16.26-3-32.46,6.09-47.12,3.44-5.54,8.33-10.17,13.55-16.4-4.05,3-7.48,4.83-9.87,7.54-8.24,9.33-15,19.39-14.26,32.79.22,3.89-.95,7.84-1.19,11.79-.21,3.59-.85,7.46.17,10.75a141.47,141.47,0,0,0,8.08,20.21A60.69,60.69,0,0,0,268.3,425c4.16,4.84,9,9.11,13.41,13.54-10,.53-17.59-3.8-22.18-12.45-2.29-4.31-4.85-8.5-7.49-12.61-3.69-5.72-4.58-12.13-4.6-18.65,0-11.26-1.41-22.88.83-33.72,3.69-17.85,14.32-31.53,32.43-37.25,4.47-1.41,10.16-.22,15,1,4.08,1,7.68,3.91,11.51,5.94,6.61,3.51,11.46,16.73,10.17,23.51-.81,4.3-5,8-9.07,7.91-4.39-.06-9.48-4.32-10-8.45a2.11,2.11,0,0,1,.27-1.38,11.35,11.35,0,0,1,1.72-1.52c.94,1.07,1.6,2.38,2.64,2.89,2.08,1,4.83,2.68,6.46,2s3-3.77,3.18-5.93c.94-9.5-6.32-13.36-13-16.95-10.21-5.47-17.27-4-25.14,4.68-7.57,8.39-12.61,18.23-13,29.63-.32,9,.54,18.11,1.18,27.14.13,1.86,1.42,3.74,2.49,5.41,4.51,7.09,8.66,14.47,13.83,21.06a40.91,40.91,0,0,0,24.42,15.43C305.2,436.7,307,438.09,309.15,439.21Z" transform="translate(-208.35 -262.17)"/><path class="cls-1" d="M209.73,366.72c-1.86-8.86-2.56-15.7,2.64-23.23,10.7-15.5,22.35-30,37.47-41.2s31.88-16.23,50.72-10.79c2.06.6,4.25.72,6.36,1.14,13,2.64,21.18,11.21,25.93,22.77,4.22,10.27,8,20.93,10.08,31.79,1.91,9.92,2.86,20.43-.78,30.42-1,2.69-2.4,5.72-4.55,7.39-8.28,6.45-17.82,9.53-28.41,8.37-3.74-.41-7.8-.61-11.06-2.23-14.92-7.44-21.62-28-14.38-43.34.72-1.54,2.35-2.65,3.55-3.95l1.51.84c-.54,3-1.52,6-1.53,9,0,6.4-.13,12.9.87,19.19,1.53,9.52,11.48,14.94,20.26,15.58a43,43,0,0,0,11.41-.94c13.41-2.66,18.08-8.41,19.34-22.06,1.35-14.5-2.16-28.12-7.31-41.34-3.44-8.86-8.29-17.61-16.17-22.91-5.68-3.82-13.27-5-20.14-6.81-13.26-3.57-25.52.84-36.84,6.75-6.2,3.24-10.86,9.43-16.19,14.32-.85.78-1.43,1.91-2.36,2.55-11.46,8-17.39,20.26-24.31,31.66C213,354.4,212,360.19,209.73,366.72Z" transform="translate(-208.35 -262.17)"/><path class="cls-1" d="M216.46,387.36a25.82,25.82,0,0,1,2.49-30,35,35,0,0,0,5.62-10.48,53.35,53.35,0,0,1,12.66-20.12c5.11-5.19,9.69-11,15.13-15.77,6.37-5.61,13.93-9,22.19-11.74a42.25,42.25,0,0,1,22.33-1.34c11.87,2.24,21,8.56,26.95,18.63,7.11,12.09,12.43,25.15,11.79,39.56-.27,6-2.06,12-3.78,17.85-2.18,7.32-16.25,10.25-23.87,8.54-.17,0-.32-.11-.48-.14-20.47-3.89-19.89-17.25-16-34.62,1-4.33,5.23-6.33,9.51-5.51,2.57.49,5,2.64,7,4.49.6.53-.18,2.6-.33,4-1.12-.59-2.58-.89-3.29-1.79-2.84-3.64-5.82-3.59-8.13.35-3.37,5.77-2.62,18.87,1.33,22.9,5.41,5.53,16.49,6.49,23.9,3.2,7.95-3.54,8.06-10.59,8.53-17.15,1-14.38-3-27.72-10.74-39.79-2-3.2-5.4-5.8-8.63-8-8.93-6-17.57-11.69-29.74-8.93-24.45,5.55-38.78,21.88-49.2,43-.58,1.19-1,2.48-1.59,3.66-3.21,6.2-7.17,12.12-9.5,18.63C218.45,373.14,217.9,380,216.46,387.36Z" transform="translate(-208.35 -262.17)"/><path class="cls-1" d="M385.71,359q-1.31-6.28-2.59-12.58a8.52,8.52,0,0,0-.47-2.42c-3.77-6.76-7.47-13.56-11.46-20.18q-5.67-9.42-11.93-18.47c-1.25-1.8-3.74-2.69-5.25-4.37-3.66-4.07-7.08-8.36-10.63-12.54a25.69,25.69,0,0,0-3.64-4c-5.44-4.18-10.79-8.53-16.57-12.19-4.56-2.88-9.7-4.88-14.62-7.19a32.49,32.49,0,0,1-5.66-2.89c9.37,0,18.43,2.08,26,7.41,6.24,4.42,11.24,10.59,16.82,15.94,1.87,1.78,3.9,3.38,5.77,5.16A114.56,114.56,0,0,1,372.34,317c4.26,7.45,8.86,14.7,13.28,22a6,6,0,0,1,1.23,2.58c.11,5.75.06,11.49.06,17.24Z" transform="translate(-208.35 -262.17)"/><path class="cls-1" d="M315.68,284.38c-3.43-1.08-7-1.81-10.27-3.29-15.17-7-30.65-4.84-45.19.49C250.91,285,243,292.29,234.57,298c-5,3.37-9.86,7-14.84,10.54,6.67-18.77,34.81-34.31,61.74-35.95,12.26-.74,24.59,2.12,34.81,9.78Z" transform="translate(-208.35 -262.17)"/><path class="cls-1" d="M356.89,307.46c2.65,4.49,5.33,9,7.93,13.49,1.95,3.39,3.91,6.78,5.68,10.26,2.54,5,5.43,10,7.23,15.23a214.89,214.89,0,0,1,6.15,22.91,17.22,17.22,0,0,1-.53,8.63c-1.79,5.49-4.25,10.77-6.61,16.54.55-8.18,1.36-15.71,1.44-23.24A32.38,32.38,0,0,0,376.25,359c-6.12-15.1-12.73-30-19.14-45-.8-1.86-1.45-3.79-2.17-5.68Z" transform="translate(-208.35 -262.17)"/><path class="cls-1" d="M339.93,272.77c22.46,11.65,36.9,29.76,43.58,54.08-4.55-7.68-8.83-15.53-13.77-22.94-2.3-3.44-5.91-6-8.89-9q-3.09-3.1-6.08-6.29Q347.33,280.73,339.93,272.77Z" transform="translate(-208.35 -262.17)"/></svg>